G75*
%MOIN*%
%OFA0B0*%
%FSLAX25Y25*%
%IPPOS*%
%LPD*%
%AMOC8*
5,1,8,0,0,1.08239X$1,22.5*
%
%ADD10C,0.08674*%
%ADD11C,0.06800*%
%ADD12R,0.06706X0.05918*%
%ADD13R,0.05918X0.06706*%
D10*
X0048811Y0048811D03*
X0119677Y0107866D03*
X0119677Y0229913D03*
X0048811Y0229913D03*
D11*
X0048000Y0084362D02*
X0042000Y0084362D01*
X0042000Y0094362D02*
X0048000Y0094362D01*
X0048000Y0104362D02*
X0042000Y0104362D01*
X0042000Y0114362D02*
X0048000Y0114362D01*
X0048000Y0124362D02*
X0042000Y0124362D01*
X0042000Y0134362D02*
X0048000Y0134362D01*
X0048000Y0144362D02*
X0042000Y0144362D01*
X0042000Y0154362D02*
X0048000Y0154362D01*
X0048000Y0164362D02*
X0042000Y0164362D01*
X0042000Y0174362D02*
X0048000Y0174362D01*
X0048000Y0184362D02*
X0042000Y0184362D01*
X0042000Y0194362D02*
X0048000Y0194362D01*
X0059000Y0159205D02*
X0065000Y0159205D01*
X0065000Y0149205D02*
X0059000Y0149205D01*
X0059000Y0139205D02*
X0065000Y0139205D01*
X0068444Y0120703D02*
X0074444Y0120703D01*
X0074444Y0102903D02*
X0068444Y0102903D01*
X0059596Y0092170D02*
X0059596Y0086170D01*
X0059596Y0066570D02*
X0059596Y0060570D01*
X0064244Y0048000D02*
X0064244Y0042000D01*
X0074244Y0042000D02*
X0074244Y0048000D01*
X0077396Y0060570D02*
X0077396Y0066570D01*
X0077396Y0086170D02*
X0077396Y0092170D01*
X0091092Y0092170D02*
X0091092Y0086170D01*
X0094044Y0102903D02*
X0100044Y0102903D01*
X0108892Y0092170D02*
X0108892Y0086170D01*
X0108892Y0066570D02*
X0108892Y0060570D01*
X0104244Y0048000D02*
X0104244Y0042000D01*
X0094244Y0042000D02*
X0094244Y0048000D01*
X0091092Y0060570D02*
X0091092Y0066570D01*
X0084244Y0048000D02*
X0084244Y0042000D01*
X0094044Y0120703D02*
X0100044Y0120703D01*
X0100044Y0177706D02*
X0094044Y0177706D01*
X0094044Y0195506D02*
X0100044Y0195506D01*
X0100044Y0213139D02*
X0094044Y0213139D01*
X0094044Y0230939D02*
X0100044Y0230939D01*
X0074444Y0230939D02*
X0068444Y0230939D01*
X0068444Y0213139D02*
X0074444Y0213139D01*
X0074444Y0195506D02*
X0068444Y0195506D01*
X0068444Y0177706D02*
X0074444Y0177706D01*
D12*
X0080500Y0163740D03*
X0080500Y0156260D03*
X0080307Y0146646D03*
X0080307Y0139165D03*
X0084228Y0115799D03*
X0084228Y0108319D03*
X0084000Y0182760D03*
X0084000Y0190240D03*
X0084500Y0218260D03*
X0084500Y0225740D03*
X0047630Y0213969D03*
X0047630Y0206488D03*
D13*
X0071260Y0076394D03*
X0078740Y0076394D03*
X0097760Y0076000D03*
X0105240Y0076000D03*
M02*
