G75*
%MOIN*%
%OFA0B0*%
%FSLAX25Y25*%
%IPPOS*%
%LPD*%
%AMOC8*
5,1,8,0,0,1.08239X$1,22.5*
%
%ADD10C,0.00000*%
D10*
X0037000Y0037000D02*
X0037000Y0241724D01*
X0131488Y0241724D01*
X0131488Y0037000D01*
X0037000Y0037000D01*
X0044874Y0048811D02*
X0044876Y0048936D01*
X0044882Y0049061D01*
X0044892Y0049185D01*
X0044906Y0049309D01*
X0044923Y0049433D01*
X0044945Y0049556D01*
X0044971Y0049678D01*
X0045000Y0049800D01*
X0045033Y0049920D01*
X0045071Y0050039D01*
X0045111Y0050158D01*
X0045156Y0050274D01*
X0045204Y0050389D01*
X0045256Y0050503D01*
X0045312Y0050615D01*
X0045371Y0050725D01*
X0045433Y0050833D01*
X0045499Y0050940D01*
X0045568Y0051044D01*
X0045641Y0051145D01*
X0045716Y0051245D01*
X0045795Y0051342D01*
X0045877Y0051436D01*
X0045962Y0051528D01*
X0046049Y0051617D01*
X0046140Y0051703D01*
X0046233Y0051786D01*
X0046329Y0051867D01*
X0046427Y0051944D01*
X0046527Y0052018D01*
X0046630Y0052089D01*
X0046735Y0052156D01*
X0046843Y0052221D01*
X0046952Y0052281D01*
X0047063Y0052339D01*
X0047176Y0052392D01*
X0047290Y0052442D01*
X0047406Y0052489D01*
X0047523Y0052531D01*
X0047642Y0052570D01*
X0047762Y0052606D01*
X0047883Y0052637D01*
X0048005Y0052665D01*
X0048127Y0052688D01*
X0048251Y0052708D01*
X0048375Y0052724D01*
X0048499Y0052736D01*
X0048624Y0052744D01*
X0048749Y0052748D01*
X0048873Y0052748D01*
X0048998Y0052744D01*
X0049123Y0052736D01*
X0049247Y0052724D01*
X0049371Y0052708D01*
X0049495Y0052688D01*
X0049617Y0052665D01*
X0049739Y0052637D01*
X0049860Y0052606D01*
X0049980Y0052570D01*
X0050099Y0052531D01*
X0050216Y0052489D01*
X0050332Y0052442D01*
X0050446Y0052392D01*
X0050559Y0052339D01*
X0050670Y0052281D01*
X0050780Y0052221D01*
X0050887Y0052156D01*
X0050992Y0052089D01*
X0051095Y0052018D01*
X0051195Y0051944D01*
X0051293Y0051867D01*
X0051389Y0051786D01*
X0051482Y0051703D01*
X0051573Y0051617D01*
X0051660Y0051528D01*
X0051745Y0051436D01*
X0051827Y0051342D01*
X0051906Y0051245D01*
X0051981Y0051145D01*
X0052054Y0051044D01*
X0052123Y0050940D01*
X0052189Y0050833D01*
X0052251Y0050725D01*
X0052310Y0050615D01*
X0052366Y0050503D01*
X0052418Y0050389D01*
X0052466Y0050274D01*
X0052511Y0050158D01*
X0052551Y0050039D01*
X0052589Y0049920D01*
X0052622Y0049800D01*
X0052651Y0049678D01*
X0052677Y0049556D01*
X0052699Y0049433D01*
X0052716Y0049309D01*
X0052730Y0049185D01*
X0052740Y0049061D01*
X0052746Y0048936D01*
X0052748Y0048811D01*
X0052746Y0048686D01*
X0052740Y0048561D01*
X0052730Y0048437D01*
X0052716Y0048313D01*
X0052699Y0048189D01*
X0052677Y0048066D01*
X0052651Y0047944D01*
X0052622Y0047822D01*
X0052589Y0047702D01*
X0052551Y0047583D01*
X0052511Y0047464D01*
X0052466Y0047348D01*
X0052418Y0047233D01*
X0052366Y0047119D01*
X0052310Y0047007D01*
X0052251Y0046897D01*
X0052189Y0046789D01*
X0052123Y0046682D01*
X0052054Y0046578D01*
X0051981Y0046477D01*
X0051906Y0046377D01*
X0051827Y0046280D01*
X0051745Y0046186D01*
X0051660Y0046094D01*
X0051573Y0046005D01*
X0051482Y0045919D01*
X0051389Y0045836D01*
X0051293Y0045755D01*
X0051195Y0045678D01*
X0051095Y0045604D01*
X0050992Y0045533D01*
X0050887Y0045466D01*
X0050779Y0045401D01*
X0050670Y0045341D01*
X0050559Y0045283D01*
X0050446Y0045230D01*
X0050332Y0045180D01*
X0050216Y0045133D01*
X0050099Y0045091D01*
X0049980Y0045052D01*
X0049860Y0045016D01*
X0049739Y0044985D01*
X0049617Y0044957D01*
X0049495Y0044934D01*
X0049371Y0044914D01*
X0049247Y0044898D01*
X0049123Y0044886D01*
X0048998Y0044878D01*
X0048873Y0044874D01*
X0048749Y0044874D01*
X0048624Y0044878D01*
X0048499Y0044886D01*
X0048375Y0044898D01*
X0048251Y0044914D01*
X0048127Y0044934D01*
X0048005Y0044957D01*
X0047883Y0044985D01*
X0047762Y0045016D01*
X0047642Y0045052D01*
X0047523Y0045091D01*
X0047406Y0045133D01*
X0047290Y0045180D01*
X0047176Y0045230D01*
X0047063Y0045283D01*
X0046952Y0045341D01*
X0046842Y0045401D01*
X0046735Y0045466D01*
X0046630Y0045533D01*
X0046527Y0045604D01*
X0046427Y0045678D01*
X0046329Y0045755D01*
X0046233Y0045836D01*
X0046140Y0045919D01*
X0046049Y0046005D01*
X0045962Y0046094D01*
X0045877Y0046186D01*
X0045795Y0046280D01*
X0045716Y0046377D01*
X0045641Y0046477D01*
X0045568Y0046578D01*
X0045499Y0046682D01*
X0045433Y0046789D01*
X0045371Y0046897D01*
X0045312Y0047007D01*
X0045256Y0047119D01*
X0045204Y0047233D01*
X0045156Y0047348D01*
X0045111Y0047464D01*
X0045071Y0047583D01*
X0045033Y0047702D01*
X0045000Y0047822D01*
X0044971Y0047944D01*
X0044945Y0048066D01*
X0044923Y0048189D01*
X0044906Y0048313D01*
X0044892Y0048437D01*
X0044882Y0048561D01*
X0044876Y0048686D01*
X0044874Y0048811D01*
X0115740Y0107866D02*
X0115742Y0107991D01*
X0115748Y0108116D01*
X0115758Y0108240D01*
X0115772Y0108364D01*
X0115789Y0108488D01*
X0115811Y0108611D01*
X0115837Y0108733D01*
X0115866Y0108855D01*
X0115899Y0108975D01*
X0115937Y0109094D01*
X0115977Y0109213D01*
X0116022Y0109329D01*
X0116070Y0109444D01*
X0116122Y0109558D01*
X0116178Y0109670D01*
X0116237Y0109780D01*
X0116299Y0109888D01*
X0116365Y0109995D01*
X0116434Y0110099D01*
X0116507Y0110200D01*
X0116582Y0110300D01*
X0116661Y0110397D01*
X0116743Y0110491D01*
X0116828Y0110583D01*
X0116915Y0110672D01*
X0117006Y0110758D01*
X0117099Y0110841D01*
X0117195Y0110922D01*
X0117293Y0110999D01*
X0117393Y0111073D01*
X0117496Y0111144D01*
X0117601Y0111211D01*
X0117709Y0111276D01*
X0117818Y0111336D01*
X0117929Y0111394D01*
X0118042Y0111447D01*
X0118156Y0111497D01*
X0118272Y0111544D01*
X0118389Y0111586D01*
X0118508Y0111625D01*
X0118628Y0111661D01*
X0118749Y0111692D01*
X0118871Y0111720D01*
X0118993Y0111743D01*
X0119117Y0111763D01*
X0119241Y0111779D01*
X0119365Y0111791D01*
X0119490Y0111799D01*
X0119615Y0111803D01*
X0119739Y0111803D01*
X0119864Y0111799D01*
X0119989Y0111791D01*
X0120113Y0111779D01*
X0120237Y0111763D01*
X0120361Y0111743D01*
X0120483Y0111720D01*
X0120605Y0111692D01*
X0120726Y0111661D01*
X0120846Y0111625D01*
X0120965Y0111586D01*
X0121082Y0111544D01*
X0121198Y0111497D01*
X0121312Y0111447D01*
X0121425Y0111394D01*
X0121536Y0111336D01*
X0121646Y0111276D01*
X0121753Y0111211D01*
X0121858Y0111144D01*
X0121961Y0111073D01*
X0122061Y0110999D01*
X0122159Y0110922D01*
X0122255Y0110841D01*
X0122348Y0110758D01*
X0122439Y0110672D01*
X0122526Y0110583D01*
X0122611Y0110491D01*
X0122693Y0110397D01*
X0122772Y0110300D01*
X0122847Y0110200D01*
X0122920Y0110099D01*
X0122989Y0109995D01*
X0123055Y0109888D01*
X0123117Y0109780D01*
X0123176Y0109670D01*
X0123232Y0109558D01*
X0123284Y0109444D01*
X0123332Y0109329D01*
X0123377Y0109213D01*
X0123417Y0109094D01*
X0123455Y0108975D01*
X0123488Y0108855D01*
X0123517Y0108733D01*
X0123543Y0108611D01*
X0123565Y0108488D01*
X0123582Y0108364D01*
X0123596Y0108240D01*
X0123606Y0108116D01*
X0123612Y0107991D01*
X0123614Y0107866D01*
X0123612Y0107741D01*
X0123606Y0107616D01*
X0123596Y0107492D01*
X0123582Y0107368D01*
X0123565Y0107244D01*
X0123543Y0107121D01*
X0123517Y0106999D01*
X0123488Y0106877D01*
X0123455Y0106757D01*
X0123417Y0106638D01*
X0123377Y0106519D01*
X0123332Y0106403D01*
X0123284Y0106288D01*
X0123232Y0106174D01*
X0123176Y0106062D01*
X0123117Y0105952D01*
X0123055Y0105844D01*
X0122989Y0105737D01*
X0122920Y0105633D01*
X0122847Y0105532D01*
X0122772Y0105432D01*
X0122693Y0105335D01*
X0122611Y0105241D01*
X0122526Y0105149D01*
X0122439Y0105060D01*
X0122348Y0104974D01*
X0122255Y0104891D01*
X0122159Y0104810D01*
X0122061Y0104733D01*
X0121961Y0104659D01*
X0121858Y0104588D01*
X0121753Y0104521D01*
X0121645Y0104456D01*
X0121536Y0104396D01*
X0121425Y0104338D01*
X0121312Y0104285D01*
X0121198Y0104235D01*
X0121082Y0104188D01*
X0120965Y0104146D01*
X0120846Y0104107D01*
X0120726Y0104071D01*
X0120605Y0104040D01*
X0120483Y0104012D01*
X0120361Y0103989D01*
X0120237Y0103969D01*
X0120113Y0103953D01*
X0119989Y0103941D01*
X0119864Y0103933D01*
X0119739Y0103929D01*
X0119615Y0103929D01*
X0119490Y0103933D01*
X0119365Y0103941D01*
X0119241Y0103953D01*
X0119117Y0103969D01*
X0118993Y0103989D01*
X0118871Y0104012D01*
X0118749Y0104040D01*
X0118628Y0104071D01*
X0118508Y0104107D01*
X0118389Y0104146D01*
X0118272Y0104188D01*
X0118156Y0104235D01*
X0118042Y0104285D01*
X0117929Y0104338D01*
X0117818Y0104396D01*
X0117708Y0104456D01*
X0117601Y0104521D01*
X0117496Y0104588D01*
X0117393Y0104659D01*
X0117293Y0104733D01*
X0117195Y0104810D01*
X0117099Y0104891D01*
X0117006Y0104974D01*
X0116915Y0105060D01*
X0116828Y0105149D01*
X0116743Y0105241D01*
X0116661Y0105335D01*
X0116582Y0105432D01*
X0116507Y0105532D01*
X0116434Y0105633D01*
X0116365Y0105737D01*
X0116299Y0105844D01*
X0116237Y0105952D01*
X0116178Y0106062D01*
X0116122Y0106174D01*
X0116070Y0106288D01*
X0116022Y0106403D01*
X0115977Y0106519D01*
X0115937Y0106638D01*
X0115899Y0106757D01*
X0115866Y0106877D01*
X0115837Y0106999D01*
X0115811Y0107121D01*
X0115789Y0107244D01*
X0115772Y0107368D01*
X0115758Y0107492D01*
X0115748Y0107616D01*
X0115742Y0107741D01*
X0115740Y0107866D01*
X0115740Y0229913D02*
X0115742Y0230038D01*
X0115748Y0230163D01*
X0115758Y0230287D01*
X0115772Y0230411D01*
X0115789Y0230535D01*
X0115811Y0230658D01*
X0115837Y0230780D01*
X0115866Y0230902D01*
X0115899Y0231022D01*
X0115937Y0231141D01*
X0115977Y0231260D01*
X0116022Y0231376D01*
X0116070Y0231491D01*
X0116122Y0231605D01*
X0116178Y0231717D01*
X0116237Y0231827D01*
X0116299Y0231935D01*
X0116365Y0232042D01*
X0116434Y0232146D01*
X0116507Y0232247D01*
X0116582Y0232347D01*
X0116661Y0232444D01*
X0116743Y0232538D01*
X0116828Y0232630D01*
X0116915Y0232719D01*
X0117006Y0232805D01*
X0117099Y0232888D01*
X0117195Y0232969D01*
X0117293Y0233046D01*
X0117393Y0233120D01*
X0117496Y0233191D01*
X0117601Y0233258D01*
X0117709Y0233323D01*
X0117818Y0233383D01*
X0117929Y0233441D01*
X0118042Y0233494D01*
X0118156Y0233544D01*
X0118272Y0233591D01*
X0118389Y0233633D01*
X0118508Y0233672D01*
X0118628Y0233708D01*
X0118749Y0233739D01*
X0118871Y0233767D01*
X0118993Y0233790D01*
X0119117Y0233810D01*
X0119241Y0233826D01*
X0119365Y0233838D01*
X0119490Y0233846D01*
X0119615Y0233850D01*
X0119739Y0233850D01*
X0119864Y0233846D01*
X0119989Y0233838D01*
X0120113Y0233826D01*
X0120237Y0233810D01*
X0120361Y0233790D01*
X0120483Y0233767D01*
X0120605Y0233739D01*
X0120726Y0233708D01*
X0120846Y0233672D01*
X0120965Y0233633D01*
X0121082Y0233591D01*
X0121198Y0233544D01*
X0121312Y0233494D01*
X0121425Y0233441D01*
X0121536Y0233383D01*
X0121646Y0233323D01*
X0121753Y0233258D01*
X0121858Y0233191D01*
X0121961Y0233120D01*
X0122061Y0233046D01*
X0122159Y0232969D01*
X0122255Y0232888D01*
X0122348Y0232805D01*
X0122439Y0232719D01*
X0122526Y0232630D01*
X0122611Y0232538D01*
X0122693Y0232444D01*
X0122772Y0232347D01*
X0122847Y0232247D01*
X0122920Y0232146D01*
X0122989Y0232042D01*
X0123055Y0231935D01*
X0123117Y0231827D01*
X0123176Y0231717D01*
X0123232Y0231605D01*
X0123284Y0231491D01*
X0123332Y0231376D01*
X0123377Y0231260D01*
X0123417Y0231141D01*
X0123455Y0231022D01*
X0123488Y0230902D01*
X0123517Y0230780D01*
X0123543Y0230658D01*
X0123565Y0230535D01*
X0123582Y0230411D01*
X0123596Y0230287D01*
X0123606Y0230163D01*
X0123612Y0230038D01*
X0123614Y0229913D01*
X0123612Y0229788D01*
X0123606Y0229663D01*
X0123596Y0229539D01*
X0123582Y0229415D01*
X0123565Y0229291D01*
X0123543Y0229168D01*
X0123517Y0229046D01*
X0123488Y0228924D01*
X0123455Y0228804D01*
X0123417Y0228685D01*
X0123377Y0228566D01*
X0123332Y0228450D01*
X0123284Y0228335D01*
X0123232Y0228221D01*
X0123176Y0228109D01*
X0123117Y0227999D01*
X0123055Y0227891D01*
X0122989Y0227784D01*
X0122920Y0227680D01*
X0122847Y0227579D01*
X0122772Y0227479D01*
X0122693Y0227382D01*
X0122611Y0227288D01*
X0122526Y0227196D01*
X0122439Y0227107D01*
X0122348Y0227021D01*
X0122255Y0226938D01*
X0122159Y0226857D01*
X0122061Y0226780D01*
X0121961Y0226706D01*
X0121858Y0226635D01*
X0121753Y0226568D01*
X0121645Y0226503D01*
X0121536Y0226443D01*
X0121425Y0226385D01*
X0121312Y0226332D01*
X0121198Y0226282D01*
X0121082Y0226235D01*
X0120965Y0226193D01*
X0120846Y0226154D01*
X0120726Y0226118D01*
X0120605Y0226087D01*
X0120483Y0226059D01*
X0120361Y0226036D01*
X0120237Y0226016D01*
X0120113Y0226000D01*
X0119989Y0225988D01*
X0119864Y0225980D01*
X0119739Y0225976D01*
X0119615Y0225976D01*
X0119490Y0225980D01*
X0119365Y0225988D01*
X0119241Y0226000D01*
X0119117Y0226016D01*
X0118993Y0226036D01*
X0118871Y0226059D01*
X0118749Y0226087D01*
X0118628Y0226118D01*
X0118508Y0226154D01*
X0118389Y0226193D01*
X0118272Y0226235D01*
X0118156Y0226282D01*
X0118042Y0226332D01*
X0117929Y0226385D01*
X0117818Y0226443D01*
X0117708Y0226503D01*
X0117601Y0226568D01*
X0117496Y0226635D01*
X0117393Y0226706D01*
X0117293Y0226780D01*
X0117195Y0226857D01*
X0117099Y0226938D01*
X0117006Y0227021D01*
X0116915Y0227107D01*
X0116828Y0227196D01*
X0116743Y0227288D01*
X0116661Y0227382D01*
X0116582Y0227479D01*
X0116507Y0227579D01*
X0116434Y0227680D01*
X0116365Y0227784D01*
X0116299Y0227891D01*
X0116237Y0227999D01*
X0116178Y0228109D01*
X0116122Y0228221D01*
X0116070Y0228335D01*
X0116022Y0228450D01*
X0115977Y0228566D01*
X0115937Y0228685D01*
X0115899Y0228804D01*
X0115866Y0228924D01*
X0115837Y0229046D01*
X0115811Y0229168D01*
X0115789Y0229291D01*
X0115772Y0229415D01*
X0115758Y0229539D01*
X0115748Y0229663D01*
X0115742Y0229788D01*
X0115740Y0229913D01*
X0044874Y0229913D02*
X0044876Y0230038D01*
X0044882Y0230163D01*
X0044892Y0230287D01*
X0044906Y0230411D01*
X0044923Y0230535D01*
X0044945Y0230658D01*
X0044971Y0230780D01*
X0045000Y0230902D01*
X0045033Y0231022D01*
X0045071Y0231141D01*
X0045111Y0231260D01*
X0045156Y0231376D01*
X0045204Y0231491D01*
X0045256Y0231605D01*
X0045312Y0231717D01*
X0045371Y0231827D01*
X0045433Y0231935D01*
X0045499Y0232042D01*
X0045568Y0232146D01*
X0045641Y0232247D01*
X0045716Y0232347D01*
X0045795Y0232444D01*
X0045877Y0232538D01*
X0045962Y0232630D01*
X0046049Y0232719D01*
X0046140Y0232805D01*
X0046233Y0232888D01*
X0046329Y0232969D01*
X0046427Y0233046D01*
X0046527Y0233120D01*
X0046630Y0233191D01*
X0046735Y0233258D01*
X0046843Y0233323D01*
X0046952Y0233383D01*
X0047063Y0233441D01*
X0047176Y0233494D01*
X0047290Y0233544D01*
X0047406Y0233591D01*
X0047523Y0233633D01*
X0047642Y0233672D01*
X0047762Y0233708D01*
X0047883Y0233739D01*
X0048005Y0233767D01*
X0048127Y0233790D01*
X0048251Y0233810D01*
X0048375Y0233826D01*
X0048499Y0233838D01*
X0048624Y0233846D01*
X0048749Y0233850D01*
X0048873Y0233850D01*
X0048998Y0233846D01*
X0049123Y0233838D01*
X0049247Y0233826D01*
X0049371Y0233810D01*
X0049495Y0233790D01*
X0049617Y0233767D01*
X0049739Y0233739D01*
X0049860Y0233708D01*
X0049980Y0233672D01*
X0050099Y0233633D01*
X0050216Y0233591D01*
X0050332Y0233544D01*
X0050446Y0233494D01*
X0050559Y0233441D01*
X0050670Y0233383D01*
X0050780Y0233323D01*
X0050887Y0233258D01*
X0050992Y0233191D01*
X0051095Y0233120D01*
X0051195Y0233046D01*
X0051293Y0232969D01*
X0051389Y0232888D01*
X0051482Y0232805D01*
X0051573Y0232719D01*
X0051660Y0232630D01*
X0051745Y0232538D01*
X0051827Y0232444D01*
X0051906Y0232347D01*
X0051981Y0232247D01*
X0052054Y0232146D01*
X0052123Y0232042D01*
X0052189Y0231935D01*
X0052251Y0231827D01*
X0052310Y0231717D01*
X0052366Y0231605D01*
X0052418Y0231491D01*
X0052466Y0231376D01*
X0052511Y0231260D01*
X0052551Y0231141D01*
X0052589Y0231022D01*
X0052622Y0230902D01*
X0052651Y0230780D01*
X0052677Y0230658D01*
X0052699Y0230535D01*
X0052716Y0230411D01*
X0052730Y0230287D01*
X0052740Y0230163D01*
X0052746Y0230038D01*
X0052748Y0229913D01*
X0052746Y0229788D01*
X0052740Y0229663D01*
X0052730Y0229539D01*
X0052716Y0229415D01*
X0052699Y0229291D01*
X0052677Y0229168D01*
X0052651Y0229046D01*
X0052622Y0228924D01*
X0052589Y0228804D01*
X0052551Y0228685D01*
X0052511Y0228566D01*
X0052466Y0228450D01*
X0052418Y0228335D01*
X0052366Y0228221D01*
X0052310Y0228109D01*
X0052251Y0227999D01*
X0052189Y0227891D01*
X0052123Y0227784D01*
X0052054Y0227680D01*
X0051981Y0227579D01*
X0051906Y0227479D01*
X0051827Y0227382D01*
X0051745Y0227288D01*
X0051660Y0227196D01*
X0051573Y0227107D01*
X0051482Y0227021D01*
X0051389Y0226938D01*
X0051293Y0226857D01*
X0051195Y0226780D01*
X0051095Y0226706D01*
X0050992Y0226635D01*
X0050887Y0226568D01*
X0050779Y0226503D01*
X0050670Y0226443D01*
X0050559Y0226385D01*
X0050446Y0226332D01*
X0050332Y0226282D01*
X0050216Y0226235D01*
X0050099Y0226193D01*
X0049980Y0226154D01*
X0049860Y0226118D01*
X0049739Y0226087D01*
X0049617Y0226059D01*
X0049495Y0226036D01*
X0049371Y0226016D01*
X0049247Y0226000D01*
X0049123Y0225988D01*
X0048998Y0225980D01*
X0048873Y0225976D01*
X0048749Y0225976D01*
X0048624Y0225980D01*
X0048499Y0225988D01*
X0048375Y0226000D01*
X0048251Y0226016D01*
X0048127Y0226036D01*
X0048005Y0226059D01*
X0047883Y0226087D01*
X0047762Y0226118D01*
X0047642Y0226154D01*
X0047523Y0226193D01*
X0047406Y0226235D01*
X0047290Y0226282D01*
X0047176Y0226332D01*
X0047063Y0226385D01*
X0046952Y0226443D01*
X0046842Y0226503D01*
X0046735Y0226568D01*
X0046630Y0226635D01*
X0046527Y0226706D01*
X0046427Y0226780D01*
X0046329Y0226857D01*
X0046233Y0226938D01*
X0046140Y0227021D01*
X0046049Y0227107D01*
X0045962Y0227196D01*
X0045877Y0227288D01*
X0045795Y0227382D01*
X0045716Y0227479D01*
X0045641Y0227579D01*
X0045568Y0227680D01*
X0045499Y0227784D01*
X0045433Y0227891D01*
X0045371Y0227999D01*
X0045312Y0228109D01*
X0045256Y0228221D01*
X0045204Y0228335D01*
X0045156Y0228450D01*
X0045111Y0228566D01*
X0045071Y0228685D01*
X0045033Y0228804D01*
X0045000Y0228924D01*
X0044971Y0229046D01*
X0044945Y0229168D01*
X0044923Y0229291D01*
X0044906Y0229415D01*
X0044892Y0229539D01*
X0044882Y0229663D01*
X0044876Y0229788D01*
X0044874Y0229913D01*
M02*
