%
M48
M72
T01C0.04000
T02C0.07874
%
T01
X45000Y84362
X45000Y94362
X45000Y104362
X45000Y114362
X45000Y124362
X45000Y134362
X45000Y144362
X45000Y154362
X45000Y164362
X45000Y174362
X45000Y184362
X45000Y194362
X62000Y159205
X62000Y149205
X62000Y139205
X71444Y120703
X71444Y102903
X77396Y89170
X91092Y89170
X97044Y102903
X97044Y120703
X108892Y89170
X108892Y63570
X104244Y45000
X94244Y45000
X84244Y45000
X74244Y45000
X64244Y45000
X59596Y63570
X59596Y89170
X77396Y63570
X91092Y63570
X97044Y177706
X97044Y195506
X97044Y213139
X97044Y230939
X71444Y230939
X71444Y213139
X71444Y195506
X71444Y177706
T02
X48811Y229913
X119677Y229913
X119677Y107866
X48811Y48811
M30
