  0
SECTION
  2
HEADER
  9
$ACADVER
  1
AC1009
  9
$INSBASE
 10
0.0
 20
0.0
 30
0.0
  9
$EXTMIN
 10
0.0
 20
0.0
 30
0.0
  9
$EXTMAX
 10
0.0
 20
0.0
 30
0.0
  0
ENDSEC
  0
SECTION
  2
TABLES
  0
TABLE
  2
VPORT
 70
0
  0
ENDTAB
  0
TABLE
  2
LTYPE
 70
1
  0
LTYPE
  2
CONTINUOUS
 70
0
  3
Solid line
 72
65
 73
0
 40
0.0
  0
ENDTAB
  0
TABLE
  2
LAYER
 70
1
  0
LAYER
  2
0
 70
64
 62
7
  6
continuous
  0
ENDTAB
  0
TABLE
  2
STYLE
 70
1
  0
STYLE
  2
STANDARD
 70
0
 40
0
 41
1.0
 50
0.0
 71
0
 42
1
 3
ARIAL.TTF
 4

  0
ENDTAB
  0
TABLE
  2
VIEW
 70
0
  0
ENDTAB
  0
ENDSEC
  0
SECTION
  2
BLOCKS
  0
ENDSEC
  0
SECTION
  2
ENTITIES
  0
POLYLINE
  8
0
 62
7
 70
1
 66
1
 10
0.0
 20
0.0
 30
0.0
  0
VERTEX
  8
0
 10
0.0
 20
0.0
 30
0.0
  0
VERTEX
  8
0
 10
0.0
 20
17.0
 30
0.0
  0
VERTEX
  8
0
 10
34.5
 20
17.0
 30
0.0
  0
VERTEX
  8
0
 10
34.5
 20
8.5
 30
0.0
  0
VERTEX
  8
0
 10
37.5
 20
8.5
 30
0.0
  0
VERTEX
  8
0
 10
37.5
 20
17.0
 30
0.0
  0
VERTEX
  8
0
 10
65.5
 20
17.0
 30
0.0
  0
VERTEX
  8
0
 10
65.5
 20
8.5
 30
0.0
  0
VERTEX
  8
0
 10
68.5
 20
8.5
 30
0.0
  0
VERTEX
  8
0
 10
68.5
 20
17.0
 30
0.0
  0
VERTEX
  8
0
 10
96.5
 20
17.0
 30
0.0
  0
VERTEX
  8
0
 10
96.5
 20
8.5
 30
0.0
  0
VERTEX
  8
0
 10
99.5
 20
8.5
 30
0.0
  0
VERTEX
  8
0
 10
99.5
 20
17.0
 30
0.0
  0
VERTEX
  8
0
 10
127.5
 20
17.0
 30
0.0
  0
VERTEX
  8
0
 10
127.5
 20
8.5
 30
0.0
  0
VERTEX
  8
0
 10
130.5
 20
8.5
 30
0.0
  0
VERTEX
  8
0
 10
130.5
 20
17.0
 30
0.0
  0
VERTEX
  8
0
 10
158.5
 20
17.0
 30
0.0
  0
VERTEX
  8
0
 10
158.5
 20
8.5
 30
0.0
  0
VERTEX
  8
0
 10
161.5
 20
8.5
 30
0.0
  0
VERTEX
  8
0
 10
161.5
 20
17.0
 30
0.0
  0
VERTEX
  8
0
 10
189.5
 20
17.0
 30
0.0
  0
VERTEX
  8
0
 10
189.5
 20
8.5
 30
0.0
  0
VERTEX
  8
0
 10
192.5
 20
8.5
 30
0.0
  0
VERTEX
  8
0
 10
192.5
 20
17.0
 30
0.0
  0
VERTEX
  8
0
 10
220.5
 20
17.0
 30
0.0
  0
VERTEX
  8
0
 10
220.5
 20
8.5
 30
0.0
  0
VERTEX
  8
0
 10
223.5
 20
8.5
 30
0.0
  0
VERTEX
  8
0
 10
223.5
 20
17.0
 30
0.0
  0
VERTEX
  8
0
 10
251.5
 20
17.0
 30
0.0
  0
VERTEX
  8
0
 10
251.5
 20
8.5
 30
0.0
  0
VERTEX
  8
0
 10
254.5
 20
8.5
 30
0.0
  0
VERTEX
  8
0
 10
254.5
 20
17.0
 30
0.0
  0
VERTEX
  8
0
 10
282.5
 20
17.0
 30
0.0
  0
VERTEX
  8
0
 10
282.5
 20
8.5
 30
0.0
  0
VERTEX
  8
0
 10
285.5
 20
8.5
 30
0.0
  0
VERTEX
  8
0
 10
285.5
 20
17.0
 30
0.0
  0
VERTEX
  8
0
 10
313.5
 20
17.0
 30
0.0
  0
VERTEX
  8
0
 10
313.5
 20
8.5
 30
0.0
  0
VERTEX
  8
0
 10
316.5
 20
8.5
 30
0.0
  0
VERTEX
  8
0
 10
316.5
 20
17.0
 30
0.0
  0
VERTEX
  8
0
 10
344.5
 20
17.0
 30
0.0
  0
VERTEX
  8
0
 10
344.5
 20
8.5
 30
0.0
  0
VERTEX
  8
0
 10
347.5
 20
8.5
 30
0.0
  0
VERTEX
  8
0
 10
347.5
 20
17.0
 30
0.0
  0
VERTEX
  8
0
 10
375.5
 20
17.0
 30
0.0
  0
VERTEX
  8
0
 10
375.5
 20
8.5
 30
0.0
  0
VERTEX
  8
0
 10
378.5
 20
8.5
 30
0.0
  0
VERTEX
  8
0
 10
378.5
 20
17.0
 30
0.0
  0
VERTEX
  8
0
 10
406.5
 20
17.0
 30
0.0
  0
VERTEX
  8
0
 10
406.5
 20
8.5
 30
0.0
  0
VERTEX
  8
0
 10
409.5
 20
8.5
 30
0.0
  0
VERTEX
  8
0
 10
409.5
 20
17.0
 30
0.0
  0
VERTEX
  8
0
 10
437.5
 20
17.0
 30
0.0
  0
VERTEX
  8
0
 10
437.5
 20
8.5
 30
0.0
  0
VERTEX
  8
0
 10
440.5
 20
8.5
 30
0.0
  0
VERTEX
  8
0
 10
440.5
 20
17.0
 30
0.0
  0
VERTEX
  8
0
 10
468.5
 20
17.0
 30
0.0
  0
VERTEX
  8
0
 10
468.5
 20
8.5
 30
0.0
  0
VERTEX
  8
0
 10
471.5
 20
8.5
 30
0.0
  0
VERTEX
  8
0
 10
471.5
 20
17.0
 30
0.0
  0
VERTEX
  8
0
 10
499.5
 20
17.0
 30
0.0
  0
VERTEX
  8
0
 10
499.5
 20
8.5
 30
0.0
  0
VERTEX
  8
0
 10
502.5
 20
8.5
 30
0.0
  0
VERTEX
  8
0
 10
502.5
 20
17.0
 30
0.0
  0
VERTEX
  8
0
 10
530.5
 20
17.0
 30
0.0
  0
VERTEX
  8
0
 10
530.5
 20
8.5
 30
0.0
  0
VERTEX
  8
0
 10
533.5
 20
8.5
 30
0.0
  0
VERTEX
  8
0
 10
533.5
 20
17.0
 30
0.0
  0
VERTEX
  8
0
 10
567.5
 20
17.0
 30
0.0
  0
VERTEX
  8
0
 10
567.5
 20
0.0
 30
0.0
  0
VERTEX
  8
0
 10
493.5
 20
0.0
 30
0.0
  0
VERTEX
  8
0
 10
493.5
 20
2.0
 30
0.0
  0
VERTEX
  8
0
 10
446.5
 20
2.0
 30
0.0
  0
VERTEX
  8
0
 10
446.5
 20
0.0
 30
0.0
  0
VERTEX
  8
0
 10
400.5
 20
0.0
 30
0.0
  0
VERTEX
  8
0
 10
400.5
 20
2.0
 30
0.0
  0
VERTEX
  8
0
 10
353.5
 20
2.0
 30
0.0
  0
VERTEX
  8
0
 10
353.5
 20
0.0
 30
0.0
  0
VERTEX
  8
0
 10
307.5
 20
0.0
 30
0.0
  0
VERTEX
  8
0
 10
307.5
 20
2.0
 30
0.0
  0
VERTEX
  8
0
 10
260.5
 20
2.0
 30
0.0
  0
VERTEX
  8
0
 10
260.5
 20
0.0
 30
0.0
  0
VERTEX
  8
0
 10
214.5
 20
0.0
 30
0.0
  0
VERTEX
  8
0
 10
214.5
 20
2.0
 30
0.0
  0
VERTEX
  8
0
 10
167.5
 20
2.0
 30
0.0
  0
VERTEX
  8
0
 10
167.5
 20
0.0
 30
0.0
  0
VERTEX
  8
0
 10
121.5
 20
0.0
 30
0.0
  0
VERTEX
  8
0
 10
121.5
 20
2.0
 30
0.0
  0
VERTEX
  8
0
 10
74.5
 20
2.0
 30
0.0
  0
VERTEX
  8
0
 10
74.5
 20
0.0
 30
0.0
  0
SEQEND
  8
0
  0
ENDSEC
  0
EOF
